<svg xmlns="http://www.w3.org/2000/svg" xmlns:xlink="http://www.w3.org/1999/xlink" preserveAspectRatio="xMidYMid" width="12" height="11" viewBox="0 0 12 11">
  <defs>
    <style>

      .cls-2 {
        fill: #76848a;
      }
    </style>
  </defs>
  <path d="M11.955,4.578 C11.955,4.578 9.785,2.922 9.785,2.922 C9.785,2.922 9.785,0.182 9.785,0.182 C9.785,0.182 8.235,0.182 8.235,0.182 C8.235,0.182 8.235,1.738 8.235,1.738 C8.235,1.738 5.972,0.011 5.972,0.011 C5.972,0.011 -0.010,4.578 -0.010,4.578 C-0.010,4.578 0.931,5.811 0.931,5.811 C0.931,5.811 1.575,5.319 1.575,5.319 C1.575,5.319 1.575,10.978 1.575,10.978 C1.575,10.978 10.370,10.978 10.370,10.978 C10.370,10.978 10.370,5.319 10.370,5.319 C10.370,5.319 11.014,5.811 11.014,5.811 C11.014,5.811 11.955,4.578 11.955,4.578 ZM9.509,10.117 C9.509,10.117 7.523,10.117 7.523,10.117 C7.523,10.117 7.523,6.844 7.523,6.844 C7.523,6.844 4.422,6.844 4.422,6.844 C4.422,6.844 4.422,10.117 4.422,10.117 C4.422,10.117 2.436,10.117 2.436,10.117 C2.436,10.117 2.436,4.771 2.436,4.771 C2.436,4.771 5.972,2.070 5.972,2.070 C5.972,2.070 9.509,4.771 9.509,4.771 C9.509,4.771 9.509,10.117 9.509,10.117 Z" id="path-1" class="cls-2" fill-rule="evenodd"/>
</svg>
