<svg xmlns="http://www.w3.org/2000/svg" xmlns:xlink="http://www.w3.org/1999/xlink" preserveAspectRatio="xMidYMid" width="16" height="12" viewBox="0 0 16 12">
  <defs>
    <style>

      .cls-2 {
        fill: #76848a;
      }
    </style>
  </defs>
  <path d="M14.409,11.091 C14.409,11.091 12.498,11.091 12.498,11.091 C11.864,11.091 11.351,10.974 11.351,10.341 C11.351,10.341 11.351,9.923 11.351,9.923 C11.351,9.290 11.864,8.777 12.498,8.777 C12.498,8.777 14.409,8.777 14.409,8.777 C15.042,8.777 15.555,9.290 15.555,9.923 C15.555,9.923 15.555,10.341 15.555,10.341 C15.555,10.974 15.042,11.091 14.409,11.091 ZM14.487,9.656 C14.487,9.656 12.419,9.656 12.419,9.656 C12.233,9.656 12.081,9.808 12.081,9.995 C12.081,10.182 12.233,10.334 12.419,10.334 C12.419,10.334 14.487,10.334 14.487,10.334 C14.673,10.334 14.826,10.182 14.826,9.995 C14.826,9.808 14.673,9.656 14.487,9.656 ZM13.118,6.260 C13.118,6.260 8.743,6.260 8.743,6.260 C8.743,6.260 8.743,5.534 8.743,5.534 C8.743,5.534 13.118,5.534 13.118,5.534 C13.118,5.534 13.844,5.534 13.844,5.534 C13.844,5.534 13.844,6.260 13.844,6.260 C13.844,6.260 13.844,8.637 13.844,8.637 C13.844,8.637 13.118,8.637 13.118,8.637 C13.118,8.637 13.118,6.260 13.118,6.260 ZM9.408,4.291 C9.408,4.291 6.383,4.291 6.383,4.291 C5.380,4.291 4.567,3.478 4.567,2.475 C4.567,2.475 4.567,1.815 4.567,1.815 C4.567,0.812 5.380,-0.001 6.383,-0.001 C6.383,-0.001 9.408,-0.001 9.408,-0.001 C10.411,-0.001 11.225,0.812 11.225,1.815 C11.225,1.815 11.225,2.475 11.225,2.475 C11.225,3.478 10.411,4.291 9.408,4.291 ZM9.532,0.953 C9.532,0.953 6.259,0.953 6.259,0.953 C5.962,0.953 5.723,1.158 5.723,1.411 C5.723,1.665 5.962,1.870 6.259,1.870 C6.259,1.870 9.532,1.870 9.532,1.870 C9.829,1.870 10.069,1.665 10.069,1.411 C10.069,1.158 9.829,0.953 9.532,0.953 ZM9.532,2.448 C9.532,2.448 6.259,2.448 6.259,2.448 C5.962,2.448 5.723,2.655 5.723,2.911 C5.723,3.166 5.962,3.374 6.259,3.374 C6.259,3.374 9.532,3.374 9.532,3.374 C9.829,3.374 10.069,3.166 10.069,2.911 C10.069,2.655 9.829,2.448 9.532,2.448 ZM7.048,6.260 C7.048,6.260 2.488,6.260 2.488,6.260 C2.488,6.260 2.488,8.637 2.488,8.637 C2.488,8.637 1.761,8.637 1.761,8.637 C1.761,8.637 1.761,6.260 1.761,6.260 C1.761,6.260 1.761,5.534 1.761,5.534 C1.761,5.534 2.488,5.534 2.488,5.534 C2.488,5.534 7.048,5.534 7.048,5.534 C7.048,5.534 7.048,6.260 7.048,6.260 ZM4.199,9.923 C4.199,9.923 4.199,10.341 4.199,10.341 C4.199,10.974 3.686,11.091 3.053,11.091 C3.053,11.091 1.142,11.091 1.142,11.091 C0.509,11.091 -0.004,10.974 -0.004,10.341 C-0.004,10.341 -0.004,9.923 -0.004,9.923 C-0.004,9.290 0.509,8.777 1.142,8.777 C1.142,8.777 3.053,8.777 3.053,8.777 C3.686,8.777 4.199,9.290 4.199,9.923 ZM1.064,9.656 C0.877,9.656 0.725,9.808 0.725,9.995 C0.725,10.182 0.877,10.334 1.064,10.334 C1.064,10.334 3.131,10.334 3.131,10.334 C3.318,10.334 3.470,10.182 3.470,9.995 C3.470,9.808 3.318,9.656 3.131,9.656 C3.131,9.656 1.064,9.656 1.064,9.656 ZM7.621,5.534 C7.621,5.534 7.621,5.028 7.621,5.028 C7.621,5.028 8.170,5.028 8.170,5.028 C8.170,5.028 8.170,5.534 8.170,5.534 C8.170,5.534 8.170,6.260 8.170,6.260 C8.170,6.260 8.170,7.822 8.170,7.822 C8.170,7.822 7.621,7.822 7.621,7.822 C7.621,7.822 7.621,6.260 7.621,6.260 C7.621,6.260 7.621,5.534 7.621,5.534 ZM6.886,8.777 C6.886,8.777 8.797,8.777 8.797,8.777 C9.430,8.777 9.944,9.290 9.944,9.923 C9.944,9.923 9.944,10.341 9.944,10.341 C9.944,10.974 9.430,11.091 8.797,11.091 C8.797,11.091 6.886,11.091 6.886,11.091 C6.253,11.091 5.740,10.974 5.740,10.341 C5.740,10.341 5.740,9.923 5.740,9.923 C5.740,9.290 6.253,8.777 6.886,8.777 ZM6.808,10.334 C6.808,10.334 8.875,10.334 8.875,10.334 C9.062,10.334 9.214,10.182 9.214,9.995 C9.214,9.808 9.062,9.656 8.875,9.656 C8.875,9.656 6.808,9.656 6.808,9.656 C6.620,9.656 6.469,9.808 6.469,9.995 C6.469,10.182 6.620,10.334 6.808,10.334 Z" id="path-1" class="cls-2" fill-rule="evenodd"/>
</svg>
