<svg xmlns="http://www.w3.org/2000/svg" xmlns:xlink="http://www.w3.org/1999/xlink" preserveAspectRatio="xMidYMid" width="14" height="20" viewBox="0 0 14 20">
  <defs>
    <style>

      .cls-2 {
        fill: #ffffff;
      }
    </style>
  </defs>
  <path d="M8.991,7.122 C10.141,6.434 10.904,5.238 10.904,3.876 C10.904,1.741 9.030,0.010 6.719,0.010 C4.408,0.010 2.534,1.741 2.534,3.876 C2.534,5.238 3.296,6.434 4.446,7.122 C1.855,8.185 0.001,11.015 0.001,14.338 C0.001,14.844 0.044,15.340 0.127,15.819 C1.719,17.837 4.082,19.115 6.719,19.115 C9.356,19.115 11.719,17.837 13.311,15.819 C13.393,15.340 13.437,14.844 13.437,14.338 C13.437,11.015 11.583,8.185 8.991,7.122 Z" id="path-1" class="cls-2" fill-rule="evenodd"/>
</svg>
